<svg version="1.1" id="Layer_1" xmlns="http://www.w3.org/2000/svg" xmlns:xlink="http://www.w3.org/1999/xlink" x="0px" y="0px"
	 width="100%" viewBox="0 0 677 326" enable-background="new 0 0 677 326" xml:space="preserve">
<path fill="#FFFFFF" opacity="1.000000" stroke="none" 
	d="
M0.999997,315.000000 
	C1.000000,210.392242 1.000000,105.784492 1.000000,1.000000 
	C152.022598,1.000000 303.045258,1.000000 454.433533,1.366695 
	C453.866089,4.564241 452.561829,7.332118 452.068878,10.237638 
	C450.529755,19.309166 449.297302,28.432718 447.930725,37.638905 
	C444.803009,31.865852 442.029083,26.453953 438.920502,21.241617 
	C438.257904,20.130621 436.426636,19.387194 435.036011,19.199751 
	C434.468903,19.123310 433.234161,20.888885 432.999207,21.967955 
	C431.555756,28.598476 429.259674,35.266521 429.222656,41.933044 
	C429.148712,55.262432 429.270874,68.764015 431.282318,81.892632 
	C434.102081,100.297134 436.898590,118.590141 435.997589,137.263855 
	C435.941681,138.421844 436.264801,139.841293 435.717987,140.694687 
	C430.450714,148.915405 429.536591,157.992935 429.882874,167.436813 
	C429.925293,168.593292 428.535126,170.679840 427.538055,170.863220 
	C415.542542,173.069672 403.559845,175.636948 391.447662,176.850006 
	C373.297333,178.667770 355.787231,172.905975 337.965393,170.775146 
	C323.388550,169.032288 309.064270,165.708893 294.241089,168.924454 
	C279.035492,172.222977 263.561737,174.362686 248.468887,178.079590 
	C236.003616,181.149384 223.947876,185.860916 211.658737,189.677780 
	C206.985153,191.129333 202.166672,192.114334 197.200775,193.365768 
	C197.454086,183.454102 197.493332,183.310867 190.972305,181.523972 
	C187.868240,180.673401 184.554169,179.931702 181.383194,180.091629 
	C163.367188,181.000290 151.875488,191.204437 149.106644,208.994598 
	C148.592041,212.300934 147.843826,216.666458 152.067230,218.378586 
	C155.747604,219.870575 156.610077,221.699783 155.020782,225.191940 
	C151.715652,232.454437 149.544327,240.494690 145.004135,246.857483 
	C140.726608,252.852188 134.246994,257.414825 128.289383,262.030945 
	C122.710052,266.354004 116.127754,270.120209 108.972122,268.741302 
	C100.214035,267.053589 91.857674,263.377777 83.174263,261.162750 
	C79.183464,260.144745 74.941025,257.098846 70.653191,260.354004 
	C63.863964,265.508148 57.233555,270.871429 50.445522,276.027161 
	C40.301796,283.731659 29.970556,291.193146 19.929678,299.027893 
	C13.425551,304.102966 7.296897,309.659302 0.999997,315.000000 
z"/>
<path fill="#000000" opacity="1.000000" stroke="none" 
	d="
M0.999997,315.428467 
	C7.296897,309.659302 13.425551,304.102966 19.929678,299.027893 
	C29.970556,291.193146 40.301796,283.731659 50.445522,276.027161 
	C57.233555,270.871429 63.863964,265.508148 70.653191,260.354004 
	C74.941025,257.098846 79.183464,260.144745 83.174263,261.162750 
	C91.857674,263.377777 100.214035,267.053589 108.972122,268.741302 
	C116.127754,270.120209 122.710052,266.354004 128.289383,262.030945 
	C134.246994,257.414825 140.726608,252.852188 145.004135,246.857483 
	C149.544327,240.494690 151.715652,232.454437 155.020782,225.191940 
	C156.610077,221.699783 155.747604,219.870575 152.067230,218.378586 
	C147.843826,216.666458 148.592041,212.300934 149.106644,208.994598 
	C151.875488,191.204437 163.367188,181.000290 181.383194,180.091629 
	C184.554169,179.931702 187.868240,180.673401 190.972305,181.523972 
	C197.493332,183.310867 197.454086,183.454102 197.200775,193.365768 
	C202.166672,192.114334 206.985153,191.129333 211.658737,189.677780 
	C223.947876,185.860916 236.003616,181.149384 248.468887,178.079590 
	C263.561737,174.362686 279.035492,172.222977 294.241089,168.924454 
	C309.064270,165.708893 323.388550,169.032288 337.965393,170.775146 
	C355.787231,172.905975 373.297333,178.667770 391.447662,176.850006 
	C403.559845,175.636948 415.542542,173.069672 427.538055,170.863220 
	C428.535126,170.679840 429.925293,168.593292 429.882874,167.436813 
	C429.536591,157.992935 430.450714,148.915405 435.717987,140.694687 
	C436.264801,139.841293 435.941681,138.421844 435.997589,137.263855 
	C436.898590,118.590141 434.102081,100.297134 431.282318,81.892632 
	C429.270874,68.764015 429.148712,55.262432 429.222656,41.933044 
	C429.259674,35.266521 431.555756,28.598476 432.999207,21.967955 
	C433.234161,20.888885 434.468903,19.123310 435.036011,19.199751 
	C436.426636,19.387194 438.257904,20.130621 438.920502,21.241617 
	C442.029083,26.453953 444.803009,31.865852 447.930725,37.638905 
	C449.297302,28.432718 450.529755,19.309166 452.068878,10.237638 
	C452.561829,7.332118 453.866089,4.564241 454.899597,1.366695 
	C455.444458,1.000000 455.888885,1.000000 456.749878,1.347042 
	C458.802826,4.792955 461.261841,7.722596 461.939850,11.018615 
	C465.859253,30.070759 469.858917,49.131481 472.848022,68.342308 
	C475.437927,84.987663 476.720581,101.836433 478.612305,118.876976 
	C480.125275,119.202888 482.038116,119.465408 483.856598,120.031227 
	C494.811188,123.439644 506.716705,125.248146 515.120178,133.818222 
	C527.484436,146.427643 539.226685,159.650955 551.098511,172.735626 
	C553.418396,175.292526 554.001221,178.406677 551.923523,181.725037 
	C551.199768,182.881027 551.251160,184.537689 551.005737,185.975449 
	C548.890381,198.368774 547.714417,204.893127 533.432922,207.187393 
	C531.379395,207.517288 529.408875,208.345886 527.388000,208.900131 
	C523.032471,210.094696 521.543579,214.262604 524.397217,217.855530 
	C525.938660,219.796310 528.330139,221.146332 529.572693,223.221268 
	C531.697815,226.769897 534.129028,230.526138 534.792542,234.470886 
	C535.883728,240.958252 535.901184,247.666016 535.894653,254.280380 
	C535.891663,257.301727 536.951660,259.214752 539.586731,259.789581 
	C545.429260,261.064056 551.383362,262.965576 557.242737,262.805756 
	C573.367310,262.365967 589.471375,261.067627 605.573364,259.960327 
	C612.139343,259.508820 618.679199,258.155273 625.230530,258.158386 
	C631.878357,258.161530 638.535095,259.250397 645.168762,260.027863 
	C648.163269,260.378784 649.071106,262.398438 649.050171,265.334564 
	C648.991577,273.545807 641.757019,280.988403 633.567261,280.999054 
	C629.053955,281.004913 624.540588,281.000122 619.522583,281.000122 
	C628.801758,284.772949 637.767456,288.133972 646.490173,292.037811 
	C657.100342,296.786346 667.505920,301.992065 678.000000,307.000000 
	C678.000000,307.750000 678.000000,308.500000 677.655396,309.714935 
	C671.164246,321.577637 662.155090,326.812744 647.600952,321.874420 
	C640.460815,319.451691 633.439331,316.586761 626.167786,314.664612 
	C613.990417,311.445648 601.717834,308.511230 589.368469,306.041504 
	C578.839661,303.935852 568.154602,302.596649 557.523010,301.024384 
	C550.233215,299.946350 543.152466,300.366974 536.009644,302.825500 
	C532.575317,304.007599 528.372986,303.567871 524.627136,303.060242 
	C521.029236,302.572662 517.536804,301.150909 514.058289,299.963196 
	C493.571869,292.968262 472.874298,296.691162 452.147675,298.366211 
	C442.955597,299.109100 433.444397,299.671631 424.443024,298.152832 
	C409.693176,295.664093 395.187317,291.617279 380.676331,287.850983 
	C359.021790,282.230530 337.458038,276.261017 315.844452,270.481873 
	C300.772461,266.451843 285.873718,261.647980 269.861298,262.916229 
	C260.063293,263.692200 250.436554,265.248413 241.800903,269.831848 
	C230.271454,275.951141 219.357803,283.221771 207.904007,289.494537 
	C189.892197,299.358917 169.829071,301.619568 149.899628,303.856750 
	C143.609619,304.562866 137.631546,305.122284 132.628082,309.411255 
	C129.870804,311.774780 127.204727,314.330933 124.146439,316.236908 
	C119.540497,319.107422 114.777176,321.838074 109.794571,323.954376 
	C106.098618,325.524200 101.948059,326.023712 98.000000,327.000000 
	C96.285645,327.000000 94.571281,327.000000 92.296555,326.648743 
	C87.255547,324.912872 86.618721,323.172729 90.072670,319.568665 
	C95.895790,313.492462 101.928947,307.593628 108.189720,301.972107 
	C110.835136,299.596832 110.695389,298.294617 107.681473,297.106628 
	C100.807121,294.396973 93.995827,291.395966 86.904816,289.429565 
	C83.918526,288.601440 79.759323,289.155365 77.054237,290.697052 
	C69.072884,295.245667 61.558655,300.612427 53.848412,305.638763 
	C46.272518,310.577545 39.160202,316.653076 30.942953,320.047180 
	C24.419535,322.741608 16.490072,321.879486 9.274578,323.118652 
	C5.940057,323.691345 3.107733,324.321350 1.000000,321.000000 
	C1.000000,319.285645 1.000000,317.571289 0.999997,315.428467 
z"/>
<path fill="#FFFFFF" opacity="1.000000" stroke="none" 
	d="
M678.000000,306.531342 
	C667.505920,301.992065 657.100342,296.786346 646.490173,292.037811 
	C637.767456,288.133972 628.801758,284.772949 619.522583,281.000122 
	C624.540588,281.000122 629.053955,281.004913 633.567261,280.999054 
	C641.757019,280.988403 648.991577,273.545807 649.050171,265.334564 
	C649.071106,262.398438 648.163269,260.378784 645.168762,260.027863 
	C638.535095,259.250397 631.878357,258.161530 625.230530,258.158386 
	C618.679199,258.155273 612.139343,259.508820 605.573364,259.960327 
	C589.471375,261.067627 573.367310,262.365967 557.242737,262.805756 
	C551.383362,262.965576 545.429260,261.064056 539.586731,259.789581 
	C536.951660,259.214752 535.891663,257.301727 535.894653,254.280380 
	C535.901184,247.666016 535.883728,240.958252 534.792542,234.470886 
	C534.129028,230.526138 531.697815,226.769897 529.572693,223.221268 
	C528.330139,221.146332 525.938660,219.796310 524.397217,217.855530 
	C521.543579,214.262604 523.032471,210.094696 527.388000,208.900131 
	C529.408875,208.345886 531.379395,207.517288 533.432922,207.187393 
	C547.714417,204.893127 548.890381,198.368774 551.005737,185.975449 
	C551.251160,184.537689 551.199768,182.881027 551.923523,181.725037 
	C554.001221,178.406677 553.418396,175.292526 551.098511,172.735626 
	C539.226685,159.650955 527.484436,146.427643 515.120178,133.818222 
	C506.716705,125.248146 494.811188,123.439644 483.856598,120.031227 
	C482.038116,119.465408 480.125275,119.202888 478.612305,118.876976 
	C476.720581,101.836433 475.437927,84.987663 472.848022,68.342308 
	C469.858917,49.131481 465.859253,30.070759 461.939850,11.018615 
	C461.261841,7.722596 458.802826,4.792955 457.083221,1.347042 
	C530.605469,1.000000 604.210938,1.000000 678.000000,1.000000 
	C678.000000,102.687485 678.000000,204.375092 678.000000,306.531342 
z"/>
<path fill="#FFFFFF" opacity="1.000000" stroke="none" 
	d="
M98.468658,327.000000 
	C101.948059,326.023712 106.098618,325.524200 109.794571,323.954376 
	C114.777176,321.838074 119.540497,319.107422 124.146439,316.236908 
	C127.204727,314.330933 129.870804,311.774780 132.628082,309.411255 
	C137.631546,305.122284 143.609619,304.562866 149.899628,303.856750 
	C169.829071,301.619568 189.892197,299.358917 207.904007,289.494537 
	C219.357803,283.221771 230.271454,275.951141 241.800903,269.831848 
	C250.436554,265.248413 260.063293,263.692200 269.861298,262.916229 
	C285.873718,261.647980 300.772461,266.451843 315.844452,270.481873 
	C337.458038,276.261017 359.021790,282.230530 380.676331,287.850983 
	C395.187317,291.617279 409.693176,295.664093 424.443024,298.152832 
	C433.444397,299.671631 442.955597,299.109100 452.147675,298.366211 
	C472.874298,296.691162 493.571869,292.968262 514.058289,299.963196 
	C517.536804,301.150909 521.029236,302.572662 524.627136,303.060242 
	C528.372986,303.567871 532.575317,304.007599 536.009644,302.825500 
	C543.152466,300.366974 550.233215,299.946350 557.523010,301.024384 
	C568.154602,302.596649 578.839661,303.935852 589.368469,306.041504 
	C601.717834,308.511230 613.990417,311.445648 626.167786,314.664612 
	C633.439331,316.586761 640.460815,319.451691 647.600952,321.874420 
	C662.155090,326.812744 671.164246,321.577637 677.655396,310.089935 
	C678.000000,315.662506 678.000000,321.325043 678.000000,326.993774 
	C484.979095,327.000000 291.958221,327.000000 98.468658,327.000000 
z"/>
<path fill="#FFFFFF" opacity="1.000000" stroke="none" 
	d="
M1.000000,321.499481 
	C3.107733,324.321350 5.940057,323.691345 9.274578,323.118652 
	C16.490072,321.879486 24.419535,322.741608 30.942953,320.047180 
	C39.160202,316.653076 46.272518,310.577545 53.848412,305.638763 
	C61.558655,300.612427 69.072884,295.245667 77.054237,290.697052 
	C79.759323,289.155365 83.918526,288.601440 86.904816,289.429565 
	C93.995827,291.395966 100.807121,294.396973 107.681473,297.106628 
	C110.695389,298.294617 110.835136,299.596832 108.189720,301.972107 
	C101.928947,307.593628 95.895790,313.492462 90.072670,319.568665 
	C86.618721,323.172729 87.255547,324.912872 91.868095,326.648743 
	C61.666664,327.000000 31.333328,327.000000 1.000000,327.000000 
	C1.000000,325.315033 1.000000,323.657013 1.000000,321.499481 
z"/>
</svg>